<svg version="1.1" xmlns="http://www.w3.org/2000/svg" xmlns:xlink="http://www.w3.org/1999/xlink" width="238.50019" height="78.99944" viewBox="0,0,238.50019,78.99944"><defs><linearGradient x1="120.75228" y1="180.00017" x2="359.24983" y2="180.00017" gradientUnits="userSpaceOnUse" id="color-1"><stop offset="0.012" stop-color="#a7a9ac"/><stop offset="1" stop-color="#414042"/></linearGradient><linearGradient x1="129.6975" y1="179.99942" x2="350.30225" y2="179.99942" gradientUnits="userSpaceOnUse" id="color-2"><stop offset="0" stop-color="#d1d2d3"/><stop offset="1" stop-color="#a4a5a8"/></linearGradient></defs><g transform="translate(-120.74991,-123.5792)"><g stroke="none" stroke-miterlimit="10"><path d="M359.2501,195.47119c0,3.92499 -10.10076,7.10745 -22.55244,7.10745h-193.39793c-12.45429,0 -22.54982,-3.18328 -22.54982,-7.10745v-30.94319c0,-3.92499 10.09553,-7.10662 22.54982,-7.10662h193.39532c12.45953,0 22.55244,3.18163 22.55244,7.10662v30.94319z" fill="url(#color-1)"/><path d="M350.2999,164.52799v30.94237c0,2.36391 -6.09872,4.28677 -13.60485,4.28677h-193.39532c-7.49825,0 -13.60223,-1.92285 -13.60223,-4.28677v-30.9432c0,-2.36391 6.10398,-4.28677 13.60223,-4.28677h193.39532c7.50612,0 13.60485,1.92368 13.60485,4.2876z" fill="url(#color-2)"/><text transform="translate(148.10002,186) scale(0.5,0.5)" font-size="40" xml:space="preserve" fill="#000000" font-family="Sans Serif" font-weight="normal" text-anchor="start"><tspan x="0" dy="0">Waghodia Chowkdi</tspan></text><text transform="translate(212.7143,145.0292) scale(0.5,0.5)" font-size="40" xml:space="preserve" fill="#000000" font-family="Sans Serif" font-weight="normal" text-anchor="start"><tspan x="0" dy="0"> </tspan></text></g></g></svg>